<svg width="77" height="52" viewBox="0 0 77 52" fill="none" xmlns="http://www.w3.org/2000/svg">
<path d="M11.5859 11.2891C11.5859 13.6992 9.37109 15.6797 6.55078 15.6797H0.171875V0.359375H6.68359C9.48047 0.359375 10.8008 2.04688 10.8008 3.94141C10.8008 5.06641 10.1289 6.125 9.14844 7.05078C10.2422 8.06641 11.5859 9.46094 11.5859 11.2891ZM3.30469 3.0625V7.48047C4.91406 6.64453 7.625 5.33984 7.625 4.01172C7.625 3.40234 7.19922 3.0625 6.46094 3.0625H3.30469ZM8.40625 11.2891C8.40625 10.5 7.625 9.64062 6.75 8.85547C5.42969 9.66406 4.08984 10.2969 3.30469 10.6328V12.9766H6.55078C7.42188 12.9766 8.40625 12.3008 8.40625 11.2891Z" fill="white"/>
<path d="M16.2852 3.0625V6.84766H23.6719V9.55469H16.2852V12.9766H24.3438V15.6797H13.1523V0.359375H24.3438V3.0625H16.2852Z" fill="white"/>
<path d="M31.9766 10.4766C31.0352 10.9492 30.0977 11.332 29.2695 11.625V15.6797H26.1367V0.359375H32.6484C35.918 0.359375 37.4609 1.98047 37.4609 4.39062C37.4609 6.17188 36.25 7.66016 34.6172 8.875L37.9297 15.6797H34.5938L31.9766 10.4766ZM29.2656 8.49219C31.3945 7.68359 34.2812 6.30859 34.2812 4.52734C34.2812 3.51562 33.5195 3.0625 32.6484 3.0625H29.2656V8.49219Z" fill="white"/>
<path d="M50.3086 10.2734V15.6836H39.1172V0.359375H42.25V12.9766H47.1719V10.2734H50.3086Z" fill="white"/>
<path d="M63.2891 12.9766V15.6797H52.0977V12.9766H56.125V3.0625H52.0742V0.359375H63.2656V3.0625H59.2578V12.9766H63.2891Z" fill="white"/>
<path d="M76.2695 0.359375V15.6797H73.1367L68.2109 6.05859V15.6797H65.0781V0.359375H68.2109L73.1367 9.98047V0.359375H76.2695Z" fill="white"/>
<path d="M11.5859 29.1562C11.5859 31.5664 9.37109 33.5508 6.55078 33.5508H0.171875V18.2266H6.68359C9.48047 18.2266 10.8008 19.918 10.8008 21.8086C10.8008 22.9336 10.1289 23.9922 9.14844 24.918C10.2422 25.9336 11.5859 27.3281 11.5859 29.1562ZM3.30469 20.9297V25.3477C4.91406 24.5117 7.625 23.207 7.625 21.875C7.625 21.2695 7.19922 20.9297 6.46094 20.9297H3.30469ZM8.40625 29.1562C8.40625 28.3672 7.625 27.5117 6.75 26.7227C5.42969 27.5312 4.08984 28.1641 3.30469 28.5V30.8438H6.55078C7.42188 30.8438 8.40625 30.168 8.40625 29.1562Z" fill="white"/>
<path d="M18.9922 28.3438C18.0547 28.8164 17.1133 29.1992 16.2852 29.4922V33.5508H13.1523V18.2266H19.6641C22.9336 18.2266 24.4766 19.8477 24.4766 22.2578C24.4766 24.0391 23.2695 25.5273 21.6367 26.7422L24.9492 33.5469H21.6133L18.9922 28.3438ZM16.2852 26.3594C18.4102 25.5508 21.2969 24.1758 21.2969 22.3945C21.2969 21.3789 20.5391 20.9297 19.6641 20.9297H16.2852V26.3594Z" fill="white"/>
<path d="M34.125 30.8438H29.332L28.9062 33.5508H25.6836L27.6992 20.7734C27.9687 19.0586 29.0195 18.2266 30.7227 18.2266H32.7344C34.4375 18.2266 35.4883 19.0586 35.7578 20.7734L37.7734 33.5508H34.5508L34.125 30.8438ZM33.6992 28.1406L32.6484 21.5156C32.5781 21.1328 32.3555 20.9297 31.9766 20.9297H31.4805C31.1016 20.9297 30.8789 21.1328 30.8086 21.5156L29.7578 28.1406H33.6992Z" fill="white"/>
<path d="M50.3086 18.2266V33.5508H47.1719L42.25 23.9258V33.5508H39.1172V18.2266H42.25L47.1719 27.8477V18.2266H50.3086Z" fill="white"/>
<path d="M63.9375 25.8867C63.9375 30.5977 60.8242 33.5508 56.1914 33.5508H52.0977V18.2266H56.1914C60.8477 18.2266 63.9375 21.1758 63.9375 25.8867ZM60.7812 25.8867C60.7812 22.7344 58.9453 20.9766 56.1914 20.9531H55.2305V30.8438H56.1914C58.9453 30.8438 60.7812 29.0664 60.7812 25.8867Z" fill="white"/>
<path d="M64.5625 31.4297L66.7344 29.4023C68.0781 30.4375 69.6875 31.0703 71.2578 31.0703C72.6914 31.0703 73.6523 30.3945 73.6523 29.3789C73.6523 26.8555 65.125 27.6211 65.125 22.168C65.125 19.6016 67.25 18 70.5625 18C73.0039 18 75.1953 19.1484 76.6523 20.4336L74.6602 22.3477C73.2266 21.2461 71.8398 20.7031 70.4727 20.7031C69.0625 20.7031 68.3008 21.4023 68.3008 22.2148C68.3008 25.0977 76.832 24.2656 76.832 29.3125C76.832 32.1523 74.0547 33.7734 71.0352 33.7734C67.9883 33.7734 65.9062 32.5586 64.5625 31.4297Z" fill="white"/>
<path d="M5.16016 42.8516H11.3633V51.418H5.76562C2.38672 51.418 0.167969 49.4102 0.167969 46.1211V41.1641C0.167969 37.8711 2.38672 35.8672 5.76562 35.8672C9.14453 35.8672 11.3633 37.875 11.3633 41.1641H8.22656C8.22656 39.4492 7.35547 38.5703 5.76562 38.5703C4.17578 38.5703 3.30469 39.4492 3.30469 41.1641V46.1211C3.30469 47.832 4.17578 48.7109 5.76562 48.7109H8.22656V45.5586H5.16016V42.8516Z" fill="white"/>
<path d="M18.9922 46.2109C18.0547 46.6836 17.1133 47.0664 16.2852 47.3594V51.418H13.1523V36.0938H19.6641C22.9336 36.0938 24.4766 37.7148 24.4766 40.125C24.4766 41.9062 23.2695 43.3945 21.6367 44.6094L24.9492 51.418H21.6133L18.9922 46.2109ZM16.2852 44.2266C18.4102 43.418 21.2969 42.043 21.2969 40.2617C21.2969 39.2461 20.5391 38.7969 19.6641 38.7969H16.2852V44.2266Z" fill="white"/>
<path d="M31.7305 51.6406C28.3516 51.6406 26.1328 49.6367 26.1328 46.3477V41.1641C26.1328 37.875 28.3516 35.8672 31.7305 35.8672C35.1094 35.8672 37.3242 37.875 37.3242 41.1641V46.3477C37.3242 49.6367 35.1094 51.6406 31.7305 51.6406ZM31.7305 48.9375C33.3203 48.9375 34.1914 48.0586 34.1914 46.3438V41.1641C34.1914 39.4492 33.3203 38.5703 31.7305 38.5703C30.1406 38.5703 29.2695 39.4492 29.2695 41.1641V46.3438C29.2656 48.0586 30.1406 48.9375 31.7305 48.9375Z" fill="white"/>
<path d="M50.3086 36.0938V46.3438C50.3086 49.6367 48.0898 51.6406 44.7109 51.6406C41.332 51.6406 39.1133 49.6328 39.1133 46.3438V36.0938H42.25V46.3438C42.25 48.0586 43.1211 48.9375 44.7109 48.9375C46.2969 48.9375 47.1719 48.0586 47.1719 46.3438V36.0938H50.3086Z" fill="white"/>
<path d="M55.2305 47.3594V51.418H52.0977V36.0938H58.6094C61.8789 36.0938 63.4219 37.7148 63.4219 40.125C63.4219 43.7109 58.4766 46.1641 55.2305 47.3594ZM60.2422 40.2617C60.2422 39.2461 59.4844 38.7969 58.6094 38.7969H55.2305V44.2266C57.3555 43.418 60.2422 42.043 60.2422 40.2617Z" fill="white"/>
<path d="M73.3164 38.75C73.3164 40.2188 72.1289 41.4102 70.6758 41.4102C69.2188 41.4102 68.0352 40.2148 68.0352 38.75C68.0352 37.2891 69.2227 36.0938 70.6758 36.0938C72.1289 36.0938 73.3164 37.2852 73.3164 38.75ZM73.0938 38.75C73.0938 37.4219 71.9961 36.3203 70.6758 36.3203C69.3555 36.3203 68.2578 37.4219 68.2578 38.75C68.2578 40.082 69.3555 41.1836 70.6758 41.1836C71.9961 41.1836 73.0938 40.082 73.0938 38.75ZM71.0781 38.9766L71.9258 40.1719H71.6797L70.8984 39.0664C70.5859 39.2266 70.25 39.3594 70 39.4492V40.1719H69.7773V37.3555H70.8984C71.5 37.3555 71.7695 37.6719 71.7695 38.0781C71.7695 38.4375 71.457 38.7305 71.0781 38.9766ZM70.0039 39.2461C70.6055 39.0234 71.5469 38.6602 71.5469 38.0977C71.5469 37.7852 71.3906 37.5586 70.8984 37.5586H70.0039V39.2461Z" fill="white"/>
</svg>
