<svg width="231" height="303" viewBox="0 0 231 303" fill="none" xmlns="http://www.w3.org/2000/svg">
<path d="M184.351 159.349C196.026 206.152 253.099 269.581 229.238 275.533C205.378 281.485 109.62 227.706 97.9448 180.903C86.2698 134.1 96.1481 91.3331 120.009 85.3812C143.869 79.4292 172.676 112.546 184.351 159.349Z" fill="#AAFAAD"/>
<path d="M144.81 148.486C144.81 172.51 133.204 191.985 118.887 191.985C104.57 191.985 92.964 172.51 92.964 148.486C92.964 124.462 104.57 104.986 118.887 104.986C133.204 104.986 144.81 124.462 144.81 148.486Z" fill="#2D2A2A"/>
<path d="M118.863 173.812C118.863 180.062 115.844 185.128 112.119 185.128C108.395 185.128 105.376 180.062 105.376 173.812C105.376 167.563 108.395 162.496 112.119 162.496C115.844 162.496 118.863 167.563 118.863 173.812Z" fill="white"/>
<path d="M239.023 129.664C250.698 176.468 256.732 268.37 232.871 274.322C209.011 280.274 164.291 198.022 152.616 151.218C140.941 104.415 150.819 61.6484 174.68 55.6965C198.54 49.7445 227.348 82.861 239.023 129.664Z" fill="#AAFAAD"/>
<path d="M199.481 118.801C199.481 142.825 187.875 162.301 173.558 162.301C159.241 162.3 147.635 142.825 147.635 118.801C147.635 94.7768 159.241 75.3014 173.558 75.3014C187.875 75.3014 199.481 94.7768 199.481 118.801Z" fill="#2D2A2A"/>
<path d="M174.35 148.466C174.35 154.716 171.331 159.782 167.607 159.782C163.882 159.782 160.863 154.716 160.863 148.466C160.863 142.216 163.882 137.15 167.607 137.15C171.331 137.15 174.35 142.216 174.35 148.466Z" fill="white"/>
<path d="M200.833 233.983C214.209 247.359 220.606 262.648 215.122 268.133C209.638 273.617 194.349 267.219 180.973 253.843C167.596 240.467 161.199 225.178 166.683 219.694C172.167 214.209 187.456 220.607 200.833 233.983Z" fill="#1E1E1E"/>
</svg>
