<svg width="197" height="257" viewBox="0 0 197 257" fill="none" xmlns="http://www.w3.org/2000/svg">
<path d="M108.351 115.349C120.026 162.152 177.099 225.581 153.239 231.533C129.378 237.485 33.6199 183.706 21.9449 136.903C10.2699 90.0997 20.1482 47.3331 44.0087 41.3812C67.8691 35.4292 96.6763 68.5457 108.351 115.349Z" fill="#AAFAAD"/>
<path d="M68.8099 104.486C68.8099 128.51 57.2038 147.985 42.887 147.985C28.5701 147.985 16.964 128.51 16.964 104.486C16.964 80.4615 28.5701 60.9861 42.887 60.9861C57.2038 60.9861 68.8099 80.4615 68.8099 104.486Z" fill="#2D2A2A"/>
<path d="M61.4873 90.586C61.4873 96.8356 58.468 101.902 54.7437 101.902C51.0193 101.902 48.0001 96.8356 48.0001 90.586C48.0001 84.3363 51.0193 79.27 54.7437 79.27C58.468 79.27 61.4873 84.3363 61.4873 90.586Z" fill="white"/>
<path d="M163.023 85.6643C174.698 132.468 180.732 224.37 156.872 230.322C133.011 236.274 88.2911 154.022 76.6161 107.218C64.9411 60.415 74.8194 17.6484 98.6799 11.6965C122.54 5.74452 151.348 38.861 163.023 85.6643Z" fill="#AAFAAD"/>
<path d="M123.481 74.8009C123.481 98.8251 111.875 118.301 97.5582 118.301C83.2413 118.3 71.6353 98.8251 71.6353 74.8009C71.6353 50.7768 83.2413 31.3014 97.5582 31.3014C111.875 31.3014 123.481 50.7768 123.481 74.8009Z" fill="#2D2A2A"/>
<path d="M111.487 75.5859C111.487 81.8356 108.468 86.9019 104.744 86.9019C101.019 86.9019 98 81.8356 98 75.5859C98 69.3362 101.019 64.2699 104.744 64.2699C108.468 64.2699 111.487 69.3362 111.487 75.5859Z" fill="white"/>
<path d="M118 189.27C134.382 179.812 140.622 159.053 144.5 165.77C148.378 172.487 141.394 189.848 125.012 199.306C108.63 208.764 88.378 198.987 84.5001 192.27C80.6222 185.553 101.618 198.728 118 189.27Z" fill="#1E1E1E"/>
</svg>
