<svg width="233" height="184" viewBox="0 0 233 184" fill="none" xmlns="http://www.w3.org/2000/svg">
<path d="M184.351 94.3491C196.026 141.152 253.099 204.581 229.238 210.533C205.378 216.485 109.62 162.706 97.9448 115.903C86.2698 69.0997 96.1481 26.3332 120.009 20.3812C143.869 14.4293 172.676 47.5458 184.351 94.3491Z" fill="#AAFAAD"/>
<path d="M144.81 83.4858C144.81 107.51 133.204 126.985 118.887 126.985C104.57 126.985 92.964 107.51 92.964 83.4858C92.964 59.4616 104.57 39.9862 118.887 39.9862C133.204 39.9862 144.81 59.4616 144.81 83.4858Z" fill="#2D2A2A"/>
<path d="M137.487 69.586C137.487 75.8357 134.468 80.902 130.744 80.902C127.019 80.902 124 75.8357 124 69.586C124 63.3364 127.019 58.27 130.744 58.27C134.468 58.27 137.487 63.3364 137.487 69.586Z" fill="white"/>
<path d="M239.023 64.6644C250.698 111.468 256.732 203.37 232.871 209.322C209.011 215.274 164.291 133.022 152.616 86.2183C140.941 39.4151 150.819 -3.3515 174.68 -9.30346C198.54 -15.2554 227.348 17.8611 239.023 64.6644Z" fill="#AAFAAD"/>
<path d="M199.481 53.8011C199.481 77.8252 187.875 97.3006 173.558 97.3006C159.241 97.3006 147.635 77.8252 147.635 53.8011C147.635 29.7769 159.241 10.3015 173.558 10.3015C187.875 10.3015 199.481 29.7769 199.481 53.8011Z" fill="#2D2A2A"/>
<path d="M187.487 54.586C187.487 60.8357 184.468 65.902 180.744 65.902C177.019 65.902 174 60.8357 174 54.586C174 48.3364 177.019 43.27 180.744 43.27C184.468 43.27 187.487 48.3364 187.487 54.586Z" fill="white"/>
<path d="M194 168.27C210.382 158.812 216.622 138.053 220.5 144.77C224.378 151.487 217.394 168.848 201.012 178.306C184.63 187.764 164.378 177.987 160.5 171.27C156.622 164.553 177.618 177.728 194 168.27Z" fill="#1E1E1E"/>
</svg>
