<svg width="355" height="355" viewBox="0 0 355 355" fill="none" xmlns="http://www.w3.org/2000/svg">
<path d="M184.351 159.349C196.026 206.152 253.099 269.581 229.238 275.533C205.378 281.485 109.62 227.706 97.9448 180.903C86.2698 134.1 96.1481 91.3331 120.009 85.3812C143.869 79.4292 172.676 112.546 184.351 159.349Z" fill="#AAFAAD"/>
<path d="M144.81 148.486C144.81 172.51 133.204 191.985 118.887 191.985C104.57 191.985 92.964 172.51 92.964 148.486C92.964 124.461 104.57 104.986 118.887 104.986C133.204 104.986 144.81 124.462 144.81 148.486Z" fill="#2D2A2A"/>
<path d="M137.487 134.586C137.487 140.836 134.468 145.902 130.744 145.902C127.019 145.902 124 140.836 124 134.586C124 128.336 127.019 123.27 130.744 123.27C134.468 123.27 137.487 128.336 137.487 134.586Z" fill="white"/>
<path d="M239.023 129.664C250.698 176.468 256.732 268.37 232.871 274.322C209.011 280.274 164.291 198.022 152.616 151.218C140.941 104.415 150.819 61.6484 174.68 55.6965C198.54 49.7445 227.348 82.861 239.023 129.664Z" fill="#AAFAAD"/>
<path d="M199.481 118.801C199.481 142.825 187.875 162.301 173.558 162.301C159.241 162.301 147.635 142.825 147.635 118.801C147.635 94.7768 159.241 75.3014 173.558 75.3014C187.875 75.3014 199.481 94.7768 199.481 118.801Z" fill="#2D2A2A"/>
<path d="M187.487 119.586C187.487 125.836 184.468 130.902 180.744 130.902C177.019 130.902 174 125.836 174 119.586C174 113.336 177.019 108.27 180.744 108.27C184.468 108.27 187.487 113.336 187.487 119.586Z" fill="white"/>
<path d="M194 233.27C210.382 223.812 216.622 203.053 220.5 209.77C224.378 216.487 217.394 233.848 201.012 243.306C184.63 252.764 164.378 242.987 160.5 236.27C156.622 229.553 177.618 242.728 194 233.27Z" fill="#1E1E1E"/>
</svg>
